<svg version="1.1" id="Layer_1" xmlns="http://www.w3.org/2000/svg" xmlns:xlink="http://www.w3.org/1999/xlink" x="0px" y="0px"
	 width="100%" viewBox="0 0 380 380" enable-background="new 0 0 380 380" xml:space="preserve">
<path fill="#000000" opacity="1.000000" stroke="none" 
	d="
M205.000000,381.000000 
	C136.666672,381.000000 68.833359,381.000000 1.000027,381.000000 
	C1.000018,254.333374 1.000018,127.666733 1.000009,1.000078 
	C127.666603,1.000052 254.333206,1.000052 380.999878,1.000026 
	C380.999908,127.666588 380.999908,254.333176 380.999939,380.999878 
	C322.500000,381.000000 264.000000,381.000000 205.000000,381.000000 
M76.008209,326.003693 
	C76.008209,326.003693 76.032906,326.066833 76.541275,325.935669 
	C76.736069,325.656555 76.930870,325.377441 77.732956,324.791107 
	C80.817337,322.462646 83.901718,320.134186 87.463425,317.445404 
	C85.196182,316.428650 83.671440,315.744904 82.728477,314.785797 
	C84.182930,313.212311 85.637390,311.638794 87.035385,310.020142 
	C87.035385,310.020142 87.031502,310.092316 87.492538,309.907013 
	C87.823471,309.705078 87.937454,309.417267 88.148094,308.420563 
	C91.196671,305.691071 94.245255,302.961548 97.293831,300.232056 
	C97.054962,299.819092 96.816093,299.406158 96.577225,298.993195 
	C92.486137,298.993195 88.333992,299.440033 84.317894,298.891235 
	C77.873573,298.010651 73.548843,300.240814 70.330093,306.260742 
	C67.607300,309.842529 64.884499,313.424316 62.305706,317.706085 
	C63.788555,318.379028 65.271400,319.051941 68.711037,320.612885 
	C66.999336,321.309875 65.988075,321.721649 64.308968,322.275513 
	C62.199764,325.806946 60.090565,329.338379 57.272282,333.004364 
	C53.876095,337.201630 50.456139,341.380615 47.164112,345.658051 
	C47.021381,345.843536 48.055168,346.934479 49.493603,347.969666 
	C60.982395,347.979797 72.471321,348.018402 83.959793,347.962006 
	C85.316521,347.955353 86.670700,347.427582 88.741013,347.020721 
	C90.857834,344.040649 92.974648,341.060608 95.767723,337.623901 
	C96.745987,334.413544 94.413841,335.022064 92.707733,335.019043 
	C84.122704,335.003845 75.537613,335.020386 66.466522,334.376617 
	C69.022003,331.940521 71.577484,329.504456 74.586823,327.000549 
	C74.586823,327.000549 75.021049,326.852142 75.528740,326.866089 
	C75.707245,326.591339 75.885757,326.316559 76.008209,326.003693 
M233.963745,259.533386 
	C238.364197,257.816711 242.780472,256.139160 247.158340,254.366714 
	C249.319717,253.491638 251.223785,252.398682 249.121475,249.645721 
	C243.869278,242.767975 238.645996,235.868118 233.385773,228.943787 
	C221.633438,233.846527 209.740967,236.105591 197.049286,235.147110 
	C185.028519,234.239304 173.931580,231.065598 163.686310,224.910294 
	C142.457779,212.156357 130.028793,193.003067 127.288689,168.831543 
	C124.220436,141.765244 133.583771,118.718925 155.193039,101.332977 
	C168.687622,90.475761 184.271393,84.749359 201.481384,85.243454 
	C210.313049,85.497009 219.113342,88.095566 227.843063,90.019020 
	C231.248688,90.769394 233.994934,91.864258 236.007248,87.673866 
	C237.112030,85.373322 239.355133,83.644005 240.919724,81.534546 
	C244.183273,77.134476 247.337097,72.652992 251.060349,67.475853 
	C243.737244,64.768822 237.330536,62.478703 231.001923,59.989952 
	C229.846817,59.535694 228.354141,58.401531 228.147400,57.357437 
	C227.480850,53.991341 227.303299,50.524048 227.009689,47.089573 
	C226.631119,42.661350 226.824341,38.101204 225.757935,33.852219 
	C225.273315,31.921389 222.400375,29.284145 220.531982,29.218721 
	C208.547119,28.799061 196.538040,28.871412 184.542252,29.083614 
	C180.852097,29.148893 178.121979,30.751495 177.908127,35.359962 
	C177.581253,42.404343 176.770569,49.434647 175.898376,56.437683 
	C175.740128,57.708298 174.561188,59.396282 173.413818,59.910339 
	C166.270599,63.110729 159.033508,66.111671 151.745117,68.968430 
	C150.498291,69.457146 148.398621,69.513275 147.471146,68.782104 
	C142.563553,64.913292 137.804214,60.839020 133.186829,56.624157 
	C128.154892,52.030857 124.319260,51.554974 119.420853,56.194698 
	C111.801918,63.411285 104.431854,70.898888 97.141937,78.450813 
	C93.886589,81.823166 94.237320,86.276443 97.357521,89.897469 
	C102.277794,95.607491 107.129288,101.376778 111.530891,106.557228 
	C108.226639,114.891113 104.975052,122.719147 102.045898,130.666016 
	C100.895470,133.787186 99.039894,134.955032 95.846886,135.045853 
	C89.740746,135.219528 83.631859,135.541870 77.544640,136.048920 
	C73.547462,136.381882 70.836662,138.023087 70.933716,142.862122 
	C71.147537,153.524094 70.999214,164.193329 71.000267,174.859589 
	C71.001099,183.230484 72.687523,184.811417 81.143745,185.034546 
	C86.917160,185.186890 92.696877,185.525070 98.438484,186.120499 
	C99.672890,186.248489 101.336655,187.606796 101.814331,188.795502 
	C105.076637,196.913681 108.075058,205.137894 111.468056,214.149918 
	C107.428116,218.755966 102.720215,224.243988 97.876167,229.609085 
	C93.851952,234.066147 93.812866,238.284805 98.008827,242.490570 
	C105.306381,249.805176 112.598656,257.125122 119.919052,264.416840 
	C124.078949,268.560455 127.377144,268.615723 131.678741,264.833984 
	C136.626099,260.484497 141.581650,256.140289 146.665482,251.953873 
	C147.576401,251.203720 149.393890,250.597748 150.340485,250.997177 
	C158.839691,254.583389 167.237747,258.409393 176.121155,262.367950 
	C176.397766,268.064545 176.595078,274.333801 177.030685,280.586426 
	C177.699249,290.183014 179.759995,291.999451 189.482025,291.999420 
	C199.148331,291.999390 208.814804,292.031891 218.480865,291.984314 
	C222.840042,291.962860 225.666656,289.033142 226.022446,284.692535 
	C226.665390,276.848785 227.445923,269.016266 228.154724,261.333832 
	C230.085342,260.796692 231.663254,260.357666 233.963745,259.533386 
M216.562286,118.968910 
	C218.066620,113.160332 219.570953,107.351753 221.075272,101.543182 
	C220.713348,101.353203 220.351425,101.163231 219.989502,100.973259 
	C201.587051,125.028442 183.184586,149.083618 164.131912,173.988754 
	C173.423233,173.988754 181.616165,173.988754 190.112869,173.988754 
	C185.844376,189.493134 181.724884,204.456284 177.605392,219.419418 
	C177.976181,219.592346 178.346970,219.765274 178.717773,219.938202 
	C197.168915,195.845383 215.620071,171.752548 234.827866,146.671722 
	C225.243942,146.671722 217.200928,146.671722 209.083664,146.671722 
	C211.477325,137.402451 213.770340,128.522934 216.562286,118.968910 
M250.997482,162.368408 
	C250.846909,142.005402 242.155014,126.530991 224.315048,115.468597 
	C224.153793,117.054611 224.319778,118.116943 223.922272,118.889252 
	C221.551605,123.495049 222.940048,126.346245 226.937271,129.695740 
	C235.927795,137.229416 240.750046,147.370789 240.913620,159.149536 
	C241.127136,174.524048 234.554657,186.707993 221.547546,194.938919 
	C217.292221,197.631729 212.226471,200.589493 207.500687,200.641525 
	C199.854950,200.725739 198.757095,206.696060 194.139053,210.661377 
	C207.790298,211.694916 214.606903,210.246124 225.611511,204.039505 
	C241.468689,195.096039 248.723282,180.737518 250.997482,162.368408 
M160.984344,126.522240 
	C147.249924,142.383728 145.477768,160.541718 152.201721,179.492371 
	C156.061447,190.370590 163.286118,199.255905 174.352707,204.320587 
	C175.000656,201.771530 175.884720,199.883194 175.838654,198.017822 
	C175.794540,196.230942 175.338974,193.752670 174.114487,192.803497 
	C159.677933,181.612778 154.091446,162.665222 160.999573,145.510483 
	C166.067978,132.924271 174.696121,124.368332 188.052277,120.979340 
	C194.871338,119.249077 201.561768,117.359566 203.821518,109.024292 
	C187.051590,108.383995 172.910187,113.758003 160.984344,126.522240 
M122.014328,328.833801 
	C122.014328,334.102325 122.014328,339.370850 122.014328,344.641693 
	C125.314728,344.641693 128.025894,344.641693 130.591812,344.641693 
	C131.082565,335.270203 131.554459,326.258850 132.021545,317.339325 
	C140.105515,316.556030 140.506653,318.344879 139.512451,309.286133 
	C131.472336,309.286133 123.414047,309.286133 114.912354,309.286133 
	C114.912354,312.123291 114.912354,314.677795 114.912354,317.232300 
	C114.677315,317.237183 114.442284,317.242035 114.207245,317.246918 
	C114.069527,314.653625 113.931808,312.060364 113.784584,309.288147 
	C110.821701,309.288147 108.101013,309.288147 104.417847,309.288147 
	C104.417847,321.175812 104.417847,332.769958 104.417847,344.686218 
	C106.866898,344.686218 109.739746,344.686218 113.000999,344.686218 
	C113.000999,337.433350 112.846855,330.412903 113.124168,323.409546 
	C113.183395,321.913727 114.486679,319.783264 115.788727,319.180450 
	C117.751999,318.271545 120.218498,318.449585 123.309212,318.059967 
	C122.879829,321.504517 122.481277,324.701721 122.014328,328.833801 
M204.996002,342.269867 
	C205.009293,331.759369 205.009293,331.759369 211.738983,330.296478 
	C211.738983,335.010101 211.738983,339.707428 211.738983,344.697266 
	C214.885712,344.697266 217.754608,344.697266 221.311920,344.697266 
	C221.311920,332.741394 221.311920,321.069214 221.311920,309.353271 
	C218.697739,309.353271 215.982422,309.353271 212.936554,309.353271 
	C212.936554,313.656464 212.936554,317.610168 212.936554,321.602264 
	C210.581955,322.108856 208.549957,322.546021 205.999023,323.094849 
	C205.999023,318.341827 205.999023,313.903046 205.999023,309.279907 
	C203.128586,309.279907 200.733658,309.279907 197.860336,309.279907 
	C197.069427,321.090363 196.294922,332.655670 195.418137,345.748230 
	C199.106079,344.764526 202.041183,343.981659 204.996002,342.269867 
M268.002686,341.462860 
	C269.588654,348.333771 274.482605,343.582642 278.924561,345.696289 
	C276.414673,333.761505 274.397034,323.375641 271.900391,313.106201 
	C271.502655,311.470245 268.920837,309.221436 267.406219,309.264740 
	C265.041412,309.332367 261.777252,310.494904 260.589325,312.305634 
	C258.216583,315.922363 256.739075,320.208740 255.354477,324.372406 
	C253.173172,330.931793 251.373627,337.618134 249.377594,344.368652 
	C258.746521,345.765808 258.746521,345.765808 260.670624,339.373657 
	C262.346252,338.971710 263.950317,338.250488 265.504395,338.345673 
	C266.377991,338.399170 267.168976,339.801056 268.002686,341.462860 
M161.828339,322.397491 
	C158.388321,322.182129 154.948303,321.966797 151.508286,321.751465 
	C151.217850,321.360718 150.927414,320.969971 150.636978,320.579224 
	C151.711060,319.720612 152.690048,318.309326 153.876740,318.105133 
	C157.719360,317.443848 161.638245,317.225739 165.725067,316.817200 
	C165.725067,314.188477 165.725067,311.803894 165.725067,309.316528 
	C158.072464,309.316528 150.697266,309.316528 142.405090,309.316528 
	C142.405090,321.240051 142.405090,332.837128 142.405090,344.000000 
	C147.251205,344.000000 152.450607,344.003632 157.650009,343.999115 
	C165.266174,343.992554 166.025757,343.000305 164.212357,334.814606 
	C159.615997,334.814606 154.900528,334.814606 150.071899,334.814606 
	C151.131332,331.110229 152.545502,330.210907 157.007172,330.001373 
	C163.425064,329.700012 163.604202,329.470673 161.828339,322.397491 
M246.994232,337.540192 
	C245.952713,336.694336 244.960922,335.203857 243.860703,335.119019 
	C239.981934,334.819794 236.065994,335.002625 231.315048,335.002625 
	C233.639282,329.659180 237.479904,329.908203 241.095703,330.040771 
	C244.272614,330.157227 245.071732,328.647705 245.054611,325.778381 
	C245.037796,322.961212 243.897919,321.859131 241.151718,321.977692 
	C238.535873,322.090607 235.911316,322.002045 233.290573,322.002045 
	C233.049194,321.433533 232.807816,320.865021 232.566437,320.296509 
	C233.760162,319.531769 234.875748,318.307281 236.162277,318.088654 
	C239.994812,317.437408 243.894485,317.181244 247.783401,316.769073 
	C247.783401,314.058899 247.783401,311.789062 247.783401,309.287018 
	C240.174469,309.287018 232.782516,309.287018 224.433441,309.287018 
	C224.433441,321.202850 224.433441,332.825928 224.433441,343.998901 
	C229.945343,343.998901 235.832382,343.903931 241.714569,344.031952 
	C245.692566,344.118530 247.622711,342.574371 246.994232,337.540192 
M182.567444,309.000244 
	C179.521454,310.379181 175.584518,310.988312 173.600311,313.284698 
	C168.146103,319.596924 166.597702,327.388336 168.057602,335.627075 
	C169.323212,342.769318 176.130203,346.949371 182.751205,343.892029 
	C186.491913,342.164734 189.348541,338.522858 192.667709,335.688446 
	C190.796448,333.178894 189.570557,331.534882 188.047531,329.492340 
	C186.613297,331.671509 185.666504,333.583435 184.266449,335.067871 
	C183.360458,336.028442 181.712372,336.954163 180.544144,336.797394 
	C179.564102,336.665924 178.388779,335.079224 178.003845,333.905884 
	C175.879028,327.429077 177.739441,321.738312 181.944183,316.667480 
	C182.258133,316.288910 183.046021,316.303284 184.160233,315.972900 
	C183.881729,318.833740 183.649078,321.223572 183.296188,324.848541 
	C186.734756,323.863678 191.528793,323.853088 192.529129,321.899689 
	C194.228455,318.581451 193.533279,313.898438 189.662552,311.306061 
	C187.867111,310.103607 185.508057,309.742676 182.567444,309.000244 
M320.607391,315.294006 
	C320.845764,317.055908 321.084137,318.817810 321.340057,320.709412 
	C323.861816,320.709412 326.257935,320.709412 330.038696,320.709412 
	C328.768829,316.813751 328.602753,312.683350 326.454590,310.533234 
	C322.926056,307.001556 313.497955,309.054932 311.007751,312.994324 
	C306.434235,320.229431 307.560272,326.150970 314.205322,330.052521 
	C315.605438,330.874512 317.277374,331.605743 318.144012,332.851746 
	C318.899750,333.938354 318.696869,335.691681 318.917511,337.150391 
	C317.596527,337.256836 316.171600,337.726562 314.978699,337.385284 
	C313.149414,336.861969 311.479858,335.780365 309.349762,334.744751 
	C308.221680,336.835938 307.190735,338.747040 305.930450,341.083344 
	C309.115295,342.446198 311.843018,343.932434 314.756073,344.786316 
	C319.279053,346.112000 325.076599,344.042755 327.035461,340.812073 
	C330.070648,335.806488 329.818390,331.039551 325.891083,326.887146 
	C324.252625,325.154785 321.922058,324.099304 320.090790,322.521729 
	C317.459473,320.254883 316.703369,317.728302 320.607391,315.294006 
M297.000000,334.517761 
	C297.374756,328.797028 297.749512,323.076324 298.120361,317.414795 
	C308.601471,316.810211 306.184448,314.908478 305.244934,309.247681 
	C297.314728,309.247681 289.384521,309.247681 281.193207,309.247681 
	C281.039398,312.514679 280.896393,315.552063 280.729370,319.099152 
	C283.309479,318.820374 285.966309,318.533295 288.917419,318.214417 
	C288.526642,327.135559 288.146484,335.814392 287.757568,344.693970 
	C291.209381,344.693970 293.921783,344.693970 297.000000,344.693970 
	C297.000000,341.425873 297.000000,338.458984 297.000000,334.517761 
z"/>
<path fill="#F40000" opacity="1.000000" stroke="none" 
	d="
M233.602463,259.726013 
	C231.663254,260.357666 230.085342,260.796692 228.154724,261.333832 
	C227.445923,269.016266 226.665390,276.848785 226.022446,284.692535 
	C225.666656,289.033142 222.840042,291.962860 218.480865,291.984314 
	C208.814804,292.031891 199.148331,291.999390 189.482025,291.999420 
	C179.759995,291.999451 177.699249,290.183014 177.030685,280.586426 
	C176.595078,274.333801 176.397766,268.064545 176.121155,262.367950 
	C167.237747,258.409393 158.839691,254.583389 150.340485,250.997177 
	C149.393890,250.597748 147.576401,251.203720 146.665482,251.953873 
	C141.581650,256.140289 136.626099,260.484497 131.678741,264.833984 
	C127.377144,268.615723 124.078949,268.560455 119.919052,264.416840 
	C112.598656,257.125122 105.306381,249.805176 98.008827,242.490570 
	C93.812866,238.284805 93.851952,234.066147 97.876167,229.609085 
	C102.720215,224.243988 107.428116,218.755966 111.468056,214.149918 
	C108.075058,205.137894 105.076637,196.913681 101.814331,188.795502 
	C101.336655,187.606796 99.672890,186.248489 98.438484,186.120499 
	C92.696877,185.525070 86.917160,185.186890 81.143745,185.034546 
	C72.687523,184.811417 71.001099,183.230484 71.000267,174.859589 
	C70.999214,164.193329 71.147537,153.524094 70.933716,142.862122 
	C70.836662,138.023087 73.547462,136.381882 77.544640,136.048920 
	C83.631859,135.541870 89.740746,135.219528 95.846886,135.045853 
	C99.039894,134.955032 100.895470,133.787186 102.045898,130.666016 
	C104.975052,122.719147 108.226639,114.891113 111.530891,106.557228 
	C107.129288,101.376778 102.277794,95.607491 97.357521,89.897469 
	C94.237320,86.276443 93.886589,81.823166 97.141937,78.450813 
	C104.431854,70.898888 111.801918,63.411285 119.420853,56.194698 
	C124.319260,51.554974 128.154892,52.030857 133.186829,56.624157 
	C137.804214,60.839020 142.563553,64.913292 147.471146,68.782104 
	C148.398621,69.513275 150.498291,69.457146 151.745117,68.968430 
	C159.033508,66.111671 166.270599,63.110729 173.413818,59.910339 
	C174.561188,59.396282 175.740128,57.708298 175.898376,56.437683 
	C176.770569,49.434647 177.581253,42.404343 177.908127,35.359962 
	C178.121979,30.751495 180.852097,29.148893 184.542252,29.083614 
	C196.538040,28.871412 208.547119,28.799061 220.531982,29.218721 
	C222.400375,29.284145 225.273315,31.921389 225.757935,33.852219 
	C226.824341,38.101204 226.631119,42.661350 227.009689,47.089573 
	C227.303299,50.524048 227.480850,53.991341 228.147400,57.357437 
	C228.354141,58.401531 229.846817,59.535694 231.001923,59.989952 
	C237.330536,62.478703 243.737244,64.768822 251.060349,67.475853 
	C247.337097,72.652992 244.183273,77.134476 240.919724,81.534546 
	C239.355133,83.644005 237.112030,85.373322 236.007248,87.673866 
	C233.994934,91.864258 231.248688,90.769394 227.843063,90.019020 
	C219.113342,88.095566 210.313049,85.497009 201.481384,85.243454 
	C184.271393,84.749359 168.687622,90.475761 155.193039,101.332977 
	C133.583771,118.718925 124.220436,141.765244 127.288689,168.831543 
	C130.028793,193.003067 142.457779,212.156357 163.686310,224.910294 
	C173.931580,231.065598 185.028519,234.239304 197.049286,235.147110 
	C209.740967,236.105591 221.633438,233.846527 233.385773,228.943787 
	C238.645996,235.868118 243.869278,242.767975 249.121475,249.645721 
	C251.223785,252.398682 249.319717,253.491638 247.158340,254.366714 
	C242.780472,256.139160 238.364197,257.816711 233.602463,259.726013 
z"/>
<path fill="#F3F803" opacity="1.000000" stroke="none" 
	d="
M216.312820,119.306152 
	C213.770340,128.522934 211.477325,137.402451 209.083664,146.671722 
	C217.200928,146.671722 225.243942,146.671722 234.827866,146.671722 
	C215.620071,171.752548 197.168915,195.845383 178.717773,219.938202 
	C178.346970,219.765274 177.976181,219.592346 177.605392,219.419418 
	C181.724884,204.456284 185.844376,189.493134 190.112869,173.988754 
	C181.616165,173.988754 173.423233,173.988754 164.131912,173.988754 
	C183.184586,149.083618 201.587051,125.028442 219.989502,100.973259 
	C220.351425,101.163231 220.713348,101.353203 221.075272,101.543182 
	C219.570953,107.351753 218.066620,113.160332 216.312820,119.306152 
z"/>
<path fill="#F3F803" opacity="1.000000" stroke="none" 
	d="
M250.998932,162.835648 
	C248.723282,180.737518 241.468689,195.096039 225.611511,204.039505 
	C214.606903,210.246124 207.790298,211.694916 194.139053,210.661377 
	C198.757095,206.696060 199.854950,200.725739 207.500687,200.641525 
	C212.226471,200.589493 217.292221,197.631729 221.547546,194.938919 
	C234.554657,186.707993 241.127136,174.524048 240.913620,159.149536 
	C240.750046,147.370789 235.927795,137.229416 226.937271,129.695740 
	C222.940048,126.346245 221.551605,123.495049 223.922272,118.889252 
	C224.319778,118.116943 224.153793,117.054611 224.315048,115.468597 
	C242.155014,126.530991 250.846909,142.005402 250.998932,162.835648 
z"/>
<path fill="#F3F803" opacity="1.000000" stroke="none" 
	d="
M161.235107,126.266190 
	C172.910187,113.758003 187.051590,108.383995 203.821518,109.024292 
	C201.561768,117.359566 194.871338,119.249077 188.052277,120.979340 
	C174.696121,124.368332 166.067978,132.924271 160.999573,145.510483 
	C154.091446,162.665222 159.677933,181.612778 174.114487,192.803497 
	C175.338974,193.752670 175.794540,196.230942 175.838654,198.017822 
	C175.884720,199.883194 175.000656,201.771530 174.352707,204.320587 
	C163.286118,199.255905 156.061447,190.370590 152.201721,179.492371 
	C145.477768,160.541718 147.249924,142.383728 161.235107,126.266190 
z"/>
<path fill="#F60000" opacity="1.000000" stroke="none" 
	d="
M122.048523,328.366364 
	C122.481277,324.701721 122.879829,321.504517 123.309212,318.059967 
	C120.218498,318.449585 117.751999,318.271545 115.788727,319.180450 
	C114.486679,319.783264 113.183395,321.913727 113.124168,323.409546 
	C112.846855,330.412903 113.000999,337.433350 113.000999,344.686218 
	C109.739746,344.686218 106.866898,344.686218 104.417847,344.686218 
	C104.417847,332.769958 104.417847,321.175812 104.417847,309.288147 
	C108.101013,309.288147 110.821701,309.288147 113.784584,309.288147 
	C113.931808,312.060364 114.069527,314.653625 114.207245,317.246918 
	C114.442284,317.242035 114.677315,317.237183 114.912354,317.232300 
	C114.912354,314.677795 114.912354,312.123291 114.912354,309.286133 
	C123.414047,309.286133 131.472336,309.286133 139.512451,309.286133 
	C140.506653,318.344879 140.105515,316.556030 132.021545,317.339325 
	C131.554459,326.258850 131.082565,335.270203 130.591812,344.641693 
	C128.025894,344.641693 125.314728,344.641693 122.014328,344.641693 
	C122.014328,339.370850 122.014328,334.102325 122.048523,328.366364 
z"/>
<path fill="#F60000" opacity="1.000000" stroke="none" 
	d="
M204.986145,342.734314 
	C202.041183,343.981659 199.106079,344.764526 195.418137,345.748230 
	C196.294922,332.655670 197.069427,321.090363 197.860336,309.279907 
	C200.733658,309.279907 203.128586,309.279907 205.999023,309.279907 
	C205.999023,313.903046 205.999023,318.341827 205.999023,323.094849 
	C208.549957,322.546021 210.581955,322.108856 212.936554,321.602264 
	C212.936554,317.610168 212.936554,313.656464 212.936554,309.353271 
	C215.982422,309.353271 218.697739,309.353271 221.311920,309.353271 
	C221.311920,321.069214 221.311920,332.741394 221.311920,344.697266 
	C217.754608,344.697266 214.885712,344.697266 211.738983,344.697266 
	C211.738983,339.707428 211.738983,335.010101 211.738983,330.296478 
	C205.009293,331.759369 205.009293,331.759369 204.986145,342.734314 
z"/>
<path fill="#F60000" opacity="1.000000" stroke="none" 
	d="
M267.999939,341.029175 
	C267.168976,339.801056 266.377991,338.399170 265.504395,338.345673 
	C263.950317,338.250488 262.346252,338.971710 260.670624,339.373657 
	C258.746521,345.765808 258.746521,345.765808 249.377594,344.368652 
	C251.373627,337.618134 253.173172,330.931793 255.354477,324.372406 
	C256.739075,320.208740 258.216583,315.922363 260.589325,312.305634 
	C261.777252,310.494904 265.041412,309.332367 267.406219,309.264740 
	C268.920837,309.221436 271.502655,311.470245 271.900391,313.106201 
	C274.397034,323.375641 276.414673,333.761505 278.924561,345.696289 
	C274.482605,343.582642 269.588654,348.333771 267.999939,341.029175 
z"/>
<path fill="#F60000" opacity="1.000000" stroke="none" 
	d="
M162.140198,322.714050 
	C163.604202,329.470673 163.425064,329.700012 157.007172,330.001373 
	C152.545502,330.210907 151.131332,331.110229 150.071899,334.814606 
	C154.900528,334.814606 159.615997,334.814606 164.212357,334.814606 
	C166.025757,343.000305 165.266174,343.992554 157.650009,343.999115 
	C152.450607,344.003632 147.251205,344.000000 142.405090,344.000000 
	C142.405090,332.837128 142.405090,321.240051 142.405090,309.316528 
	C150.697266,309.316528 158.072464,309.316528 165.725067,309.316528 
	C165.725067,311.803894 165.725067,314.188477 165.725067,316.817200 
	C161.638245,317.225739 157.719360,317.443848 153.876740,318.105133 
	C152.690048,318.309326 151.711060,319.720612 150.636978,320.579224 
	C150.927414,320.969971 151.217850,321.360718 151.508286,321.751465 
	C154.948303,321.966797 158.388321,322.182129 162.140198,322.714050 
z"/>
<path fill="#F60000" opacity="1.000000" stroke="none" 
	d="
M246.996613,337.996826 
	C247.622711,342.574371 245.692566,344.118530 241.714569,344.031952 
	C235.832382,343.903931 229.945343,343.998901 224.433441,343.998901 
	C224.433441,332.825928 224.433441,321.202850 224.433441,309.287018 
	C232.782516,309.287018 240.174469,309.287018 247.783401,309.287018 
	C247.783401,311.789062 247.783401,314.058899 247.783401,316.769073 
	C243.894485,317.181244 239.994812,317.437408 236.162277,318.088654 
	C234.875748,318.307281 233.760162,319.531769 232.566437,320.296509 
	C232.807816,320.865021 233.049194,321.433533 233.290573,322.002045 
	C235.911316,322.002045 238.535873,322.090607 241.151718,321.977692 
	C243.897919,321.859131 245.037796,322.961212 245.054611,325.778381 
	C245.071732,328.647705 244.272614,330.157227 241.095703,330.040771 
	C237.479904,329.908203 233.639282,329.659180 231.315048,335.002625 
	C236.065994,335.002625 239.981934,334.819794 243.860703,335.119019 
	C244.960922,335.203857 245.952713,336.694336 246.996613,337.996826 
z"/>
<path fill="#F60000" opacity="1.000000" stroke="none" 
	d="
M182.985977,309.000244 
	C185.508057,309.742676 187.867111,310.103607 189.662552,311.306061 
	C193.533279,313.898438 194.228455,318.581451 192.529129,321.899689 
	C191.528793,323.853088 186.734756,323.863678 183.296188,324.848541 
	C183.649078,321.223572 183.881729,318.833740 184.160233,315.972900 
	C183.046021,316.303284 182.258133,316.288910 181.944183,316.667480 
	C177.739441,321.738312 175.879028,327.429077 178.003845,333.905884 
	C178.388779,335.079224 179.564102,336.665924 180.544144,336.797394 
	C181.712372,336.954163 183.360458,336.028442 184.266449,335.067871 
	C185.666504,333.583435 186.613297,331.671509 188.047531,329.492340 
	C189.570557,331.534882 190.796448,333.178894 192.667709,335.688446 
	C189.348541,338.522858 186.491913,342.164734 182.751205,343.892029 
	C176.130203,346.949371 169.323212,342.769318 168.057602,335.627075 
	C166.597702,327.388336 168.146103,319.596924 173.600311,313.284698 
	C175.584518,310.988312 179.521454,310.379181 182.985977,309.000244 
z"/>
<path fill="#F60000" opacity="1.000000" stroke="none" 
	d="
M320.197998,315.216400 
	C316.703369,317.728302 317.459473,320.254883 320.090790,322.521729 
	C321.922058,324.099304 324.252625,325.154785 325.891083,326.887146 
	C329.818390,331.039551 330.070648,335.806488 327.035461,340.812073 
	C325.076599,344.042755 319.279053,346.112000 314.756073,344.786316 
	C311.843018,343.932434 309.115295,342.446198 305.930450,341.083344 
	C307.190735,338.747040 308.221680,336.835938 309.349762,334.744751 
	C311.479858,335.780365 313.149414,336.861969 314.978699,337.385284 
	C316.171600,337.726562 317.596527,337.256836 318.917511,337.150391 
	C318.696869,335.691681 318.899750,333.938354 318.144012,332.851746 
	C317.277374,331.605743 315.605438,330.874512 314.205322,330.052521 
	C307.560272,326.150970 306.434235,320.229431 311.007751,312.994324 
	C313.497955,309.054932 322.926056,307.001556 326.454590,310.533234 
	C328.602753,312.683350 328.768829,316.813751 330.038696,320.709412 
	C326.257935,320.709412 323.861816,320.709412 321.340057,320.709412 
	C321.084137,318.817810 320.845764,317.055908 320.197998,315.216400 
z"/>
<path fill="#E62238" opacity="1.000000" stroke="none" 
	d="
M48.540894,347.603607 
	C48.055168,346.934479 47.021381,345.843536 47.164112,345.658051 
	C50.456139,341.380615 53.876095,337.201630 57.499660,333.267334 
	C57.561653,334.778961 57.396267,336.027618 57.178650,337.670593 
	C60.031837,336.587402 62.077610,335.810760 64.205711,335.347809 
	C65.130714,335.764160 65.973396,335.866821 67.296066,335.983582 
	C75.217888,335.995392 82.663368,335.868073 90.098740,336.085876 
	C91.781013,336.135132 93.428154,337.383911 95.091469,338.080536 
	C92.974648,341.060608 90.857834,344.040649 87.917679,347.009552 
	C81.305939,346.990997 75.516121,346.899902 69.729485,346.997559 
	C62.665226,347.116791 55.603642,347.394470 48.540894,347.603607 
z"/>
<path fill="#F60000" opacity="1.000000" stroke="none" 
	d="
M297.000000,335.004913 
	C297.000000,338.458984 297.000000,341.425873 297.000000,344.693970 
	C293.921783,344.693970 291.209381,344.693970 287.757568,344.693970 
	C288.146484,335.814392 288.526642,327.135559 288.917419,318.214417 
	C285.966309,318.533295 283.309479,318.820374 280.729370,319.099152 
	C280.896393,315.552063 281.039398,312.514679 281.193207,309.247681 
	C289.384521,309.247681 297.314728,309.247681 305.246216,309.249573 
	C306.184448,314.908478 308.601471,316.810211 298.120361,317.414795 
	C297.749512,323.076324 297.374756,328.797028 297.000000,335.004913 
z"/>
<path fill="#BE081D" opacity="1.000000" stroke="none" 
	d="
M71.015610,306.147583 
	C73.548843,300.240814 77.873573,298.010651 84.317894,298.891235 
	C88.333992,299.440033 92.486137,298.993195 96.577225,298.993195 
	C96.816093,299.406158 97.054962,299.819092 97.293831,300.232056 
	C94.245255,302.961548 91.196671,305.691071 87.822769,308.877899 
	C87.298225,309.560577 87.142906,309.812927 87.031502,310.092316 
	C87.031502,310.092316 87.035385,310.020142 86.630676,310.018250 
	C82.352219,309.675385 78.442047,309.543549 74.624611,308.878998 
	C73.303162,308.648987 72.211975,307.096191 71.015610,306.147583 
z"/>
<path fill="#C80C22" opacity="1.000000" stroke="none" 
	d="
M70.672852,306.204163 
	C72.211975,307.096191 73.303162,308.648987 74.624611,308.878998 
	C78.442047,309.543549 82.352219,309.675385 86.658905,310.040833 
	C85.637390,311.638794 84.182930,313.212311 82.094604,315.045349 
	C78.513107,318.529541 75.084030,319.918610 70.656410,318.647156 
	C67.895439,317.854340 64.997940,317.536896 62.161705,317.006104 
	C64.884499,313.424316 67.607300,309.842529 70.672852,306.204163 
z"/>
<path fill="#D1142A" opacity="1.000000" stroke="none" 
	d="
M62.233704,317.356079 
	C64.997940,317.536896 67.895439,317.854340 70.656410,318.647156 
	C75.084030,319.918610 78.513107,318.529541 81.803711,315.183044 
	C83.671440,315.744904 85.196182,316.428650 87.463425,317.445404 
	C83.901718,320.134186 80.817337,322.462646 77.207779,325.055145 
	C76.404587,325.514954 76.188019,325.764160 76.032906,326.066833 
	C76.032906,326.066833 76.008209,326.003693 75.836853,326.123566 
	C75.404007,326.396942 75.189194,326.599854 75.021049,326.852142 
	C75.021049,326.852142 74.586823,327.000549 73.996094,327.054260 
	C69.832603,326.743042 64.561966,329.254883 64.976845,322.133453 
	C65.988075,321.721649 66.999336,321.309875 68.711037,320.612885 
	C65.271400,319.051941 63.788555,318.379028 62.233704,317.356079 
z"/>
<path fill="#DC1A2F" opacity="1.000000" stroke="none" 
	d="
M64.642921,322.204498 
	C64.561966,329.254883 69.832603,326.743042 73.769165,327.088196 
	C71.577484,329.504456 69.022003,331.940521 66.731071,334.670288 
	C66.995621,334.963989 67.061043,335.002350 66.775299,334.693665 
	C65.700829,334.601349 64.912109,334.817749 64.123383,335.034119 
	C62.077610,335.810760 60.031837,336.587402 57.178650,337.670593 
	C57.396267,336.027618 57.561653,334.778961 57.854202,333.200073 
	C60.090565,329.338379 62.199764,325.806946 64.642921,322.204498 
z"/>
<path fill="#FFFFFF" opacity="1.000000" stroke="none" 
	d="
M49.017250,347.786621 
	C55.603642,347.394470 62.665226,347.116791 69.729485,346.997559 
	C75.516121,346.899902 81.305939,346.990997 87.560204,347.069885 
	C86.670700,347.427582 85.316521,347.955353 83.959793,347.962006 
	C72.471321,348.018402 60.982395,347.979797 49.017250,347.786621 
z"/>
<path fill="#E4334F" opacity="1.000000" stroke="none" 
	d="
M95.429596,337.852234 
	C93.428154,337.383911 91.781013,336.135132 90.098740,336.085876 
	C82.663368,335.868073 75.217888,335.995392 67.355652,335.741211 
	C66.935249,335.484680 67.061043,335.002350 67.061043,335.002350 
	C67.061043,335.002350 66.995621,334.963989 66.974083,334.994873 
	C75.537613,335.020386 84.122704,335.003845 92.707733,335.019043 
	C94.413841,335.022064 96.745987,334.413544 95.429596,337.852234 
z"/>
<path fill="#C80C22" opacity="1.000000" stroke="none" 
	d="
M87.262024,309.999664 
	C87.142906,309.812927 87.298225,309.560577 87.665970,309.189392 
	C87.937454,309.417267 87.823471,309.705078 87.262024,309.999664 
z"/>
<path fill="#DC1A2F" opacity="1.000000" stroke="none" 
	d="
M76.287094,326.001251 
	C76.188019,325.764160 76.404587,325.514954 76.904137,325.208740 
	C76.930870,325.377441 76.736069,325.656555 76.287094,326.001251 
z"/>
<path fill="#DC1A2F" opacity="1.000000" stroke="none" 
	d="
M75.274895,326.859131 
	C75.189194,326.599854 75.404007,326.396942 75.864876,326.142639 
	C75.885757,326.316559 75.707245,326.591339 75.274895,326.859131 
z"/>
<path fill="#000000" opacity="1.000000" stroke="none" 
	d="
M66.775299,334.693665 
	C67.061043,335.002350 66.935249,335.484680 66.875656,335.727051 
	C65.973396,335.866821 65.130714,335.764160 64.205719,335.347809 
	C64.912109,334.817749 65.700829,334.601349 66.775299,334.693665 
z"/>
</svg>